<?xml version="1.0" standalone="no"?>
<!DOCTYPE svg PUBLIC "-//W3C//DTD SVG 20010904//EN"
 "http://www.w3.org/TR/2001/REC-SVG-20010904/DTD/svg10.dtd">
<svg version="1.0" xmlns="http://www.w3.org/2000/svg"
 width="1024.000000pt" height="1024.000000pt" viewBox="0 0 1024.000000 1024.000000"
 preserveAspectRatio="xMidYMid meet">
<metadata>
Created by potrace 1.16, written by Peter Selinger 2001-2019
</metadata>
<g transform="translate(0.000000,1024.000000) scale(0.100000,-0.100000)"
fill="#000000" stroke="none">
<path d="M2326 5139 c1 -1435 4 -2612 7 -2615 3 -3 1258 -7 2789 -7 l2783 -2
-3 2618 -2 2617 -2788 0 -2787 -1 1 -2610z m5154 -4 l0 -2205 -2368 0 -2368 0
-2 2204 -2 2203 2370 2 2370 2 0 -2206z"/>
<path d="M3029 6506 c-1 -198 -2 -979 -3 -1735 l-1 -1373 470 5 c521 6 556 9
745 73 248 85 392 189 565 410 86 110 189 330 223 479 45 197 47 227 47 760
-1 570 -7 644 -70 865 -42 146 -88 246 -171 373 -150 230 -382 393 -669 469
l-120 32 -507 2 -508 1 -1 -361z m881 -126 c207 -26 317 -75 436 -194 121
-122 178 -233 220 -426 17 -77 19 -136 19 -655 0 -564 0 -571 -23 -649 -71
-246 -200 -415 -384 -505 -133 -65 -173 -72 -440 -78 l-238 -6 -1 589 c-1 324
-2 892 -4 1262 l-2 672 166 0 c92 0 205 -5 251 -10z"/>
<path d="M5302 5758 c-1 -612 0 -1393 4 -1735 l6 -623 442 0 c242 0 482 5 531
10 188 22 383 91 550 195 48 30 95 72 150 135 98 113 116 140 166 244 59 122
83 246 83 431 0 131 -3 163 -27 255 -47 184 -156 366 -266 445 -23 17 -52 38
-64 48 l-22 17 21 18 c37 32 131 148 173 214 66 105 129 254 142 338 14 92 6
292 -16 375 -43 166 -120 305 -237 430 -123 132 -277 220 -490 282 l-93 27
-525 4 -525 3 -3 -1113z m1068 603 c80 -28 187 -98 236 -154 84 -98 130 -243
122 -387 -10 -163 -97 -293 -250 -368 -99 -48 -137 -53 -431 -50 l-269 3 1
165 c0 91 4 313 7 494 l7 328 256 -4 c234 -4 262 -6 321 -27z m60 -1445 c79
-26 130 -58 192 -124 93 -97 127 -184 135 -347 4 -85 1 -125 -12 -175 -47
-181 -180 -317 -365 -375 -44 -14 -107 -19 -325 -22 l-270 -5 -3 463 c-2 255
-1 497 3 537 l7 74 291 -4 c244 -4 301 -8 347 -22z"/>
</g>
</svg>
